<svg width="1200" height="1176" xmlns="http://www.w3.org/2000/svg" version="1.1">

 <g>
  <title>Layer 1</title>
  <path id="svg_1" fill="#FEFEFF" d="m85,1c10.62442,38.17617 21.2167,76.36108 31.75,114.5625c0.37398,1.35633 0.37398,1.35633 0.75552,2.74007c2.29778,8.33365 4.59518,16.66741 6.89219,25.00128c3.53773,12.83535 7.07712,25.67024 10.61792,38.50474c0.37055,1.34317 0.37055,1.34317 0.74858,2.71346c1.24658,4.51853 2.49319,9.03704 3.73982,13.55556c2.24874,8.15085 4.49722,16.30178 6.74572,24.4527c1.25007,4.53156 2.50016,9.06313 3.75025,13.59469c0.5,1.8125 1,3.625 1.5,5.4375c0.2475,0.89719 0.495,1.79438 0.75,2.71875c25.125,91.07813 25.125,91.07813 50.25,182.15625c0.2475,0.8972 0.49501,1.7944 0.75001,2.71879c0.49996,1.81236 0.99992,3.62471 1.49988,5.43706c1.25063,4.53353 2.50126,9.06707 3.7519,13.6006c2.24247,8.12895 4.48493,16.2579 6.72734,24.38686c1.24003,4.4952 2.48005,8.9904 3.72009,13.4856c0.36888,1.33721 0.36888,1.33721 0.74521,2.70144c3.37894,12.24878 6.75826,24.49745 10.13788,36.74604c1.88196,6.82071 3.76381,13.64146 5.64564,20.46221c1.26971,4.60207 2.53948,9.20412 3.8094,13.80613c6.91773,25.06888 13.82104,50.1417 20.71265,75.21777c2.31521,-3.03117 4.24072,-6.07336 6.08203,-9.41797c0.89248,-1.61479 0.89248,-1.61479 1.80298,-3.26221c0.31365,-0.57075 0.62731,-1.1415 0.95047,-1.72955c1.33555,-2.43014 2.67773,-4.8566 4.01949,-7.28332c0.69366,-1.25474 1.38699,-2.50967 2.07998,-3.76477c3.35185,-6.06919 6.73603,-12.12008 10.12755,-18.16718c0.57275,-1.02182 1.14549,-2.04365 1.7356,-3.09644c1.15585,-2.06201 2.31185,-4.12394 3.46801,-6.18579c2.91328,-5.19648 5.82342,-10.39472 8.73389,-15.59277c1.16665,-2.08334 2.33332,-4.16667 3.5,-6.25c0.5775,-1.03125 1.155,-2.0625 1.75,-3.125c30.625,-54.6875 30.625,-54.6875 61.25,-109.375c0.57758,-1.03141 1.15516,-2.06282 1.75024,-3.12549c1.1658,-2.08174 2.33165,-4.16344 3.49756,-6.24512c2.93052,-5.23245 5.85998,-10.46549 8.78736,-15.6997c5.61156,-10.03114 11.23641,-20.05415 16.90234,-30.05469c5.37933,-9.49622 10.68515,-19.03207 15.97632,-28.57764c4.51536,-8.1389 9.08113,-16.24781 13.67212,-24.34423c4.17856,-7.37873 8.30303,-14.7866 12.41406,-22.20313c5.17694,-9.33846 10.39508,-18.6519 15.65845,-27.94189c5.72818,-10.11329 11.40207,-20.25678 17.07544,-30.40088c2.92009,-5.22017 5.84325,-10.43862 8.76611,-15.65723c1.16668,-2.08333 2.33335,-4.16666 3.5,-6.25c21,-37.5 42,-75 63,-112.5c0.57798,-1.03222 1.15597,-2.06443 1.75146,-3.12793c1.16143,-2.07377 2.32321,-4.14734 3.48536,-6.2207c2.99984,-5.35308 5.9926,-10.70994 8.97412,-16.07324c11.76469,-21.13634 11.76469,-21.13634 18.28906,-31.32813c3.15121,2.90907 5.22996,5.79925 7.32813,9.53125c0.62648,1.10602 1.25296,2.21203 1.89843,3.35156c0.67453,1.2057 1.34901,2.41143 2.02344,3.61719c0.71024,1.2582 1.42119,2.51601 2.13281,3.77344c1.47735,2.61175 2.95165,5.22518 4.42383,7.83984c3.36946,5.97843 6.78368,11.93117 10.19336,17.88672c1.33381,2.33306 2.6669,4.66653 4,7c0.66665,1.16667 1.33332,2.33334 2,3.5c17.33333,30.33333 34.66667,60.66667 52,91c0.32999,0.57749 0.65999,1.15498 0.99998,1.74997c0.66673,1.16677 1.33344,2.33353 2.00016,3.5003c1.66578,2.91517 3.33164,5.8303 4.99766,8.74534c3.0106,5.26782 6.02064,10.53597 9.02787,15.80572c6.79911,11.91443 13.61186,23.82056 20.47433,35.69867c7.20213,12.46602 14.3483,24.96361 21.48389,37.46777c3.00344,5.26271 6.01041,10.5234 9.01712,15.78424c1.66647,2.91592 3.33272,5.83196 4.99899,8.74799c0.66667,1.16667 1.33333,2.33333 2,3.5c17.33333,30.33333 34.66667,60.66667 52,91c0.49498,0.86622 0.49498,0.86622 0.99997,1.74994c0.66678,1.16686 1.33355,2.33373 2.0003,3.50061c1.66491,2.91367 3.32996,5.82726 4.99534,8.74066c3.02119,5.28564 6.04122,10.57193 9.05569,15.86141c1.69049,2.96621 3.38186,5.93193 5.0737,8.89738c0.33256,0.58295 0.66512,1.1659 1.00775,1.76651c4.61513,8.08595 9.28347,16.13922 13.99225,24.17099c5.32729,9.08817 10.50264,18.25306 15.62549,27.45776c3.99936,7.16883 8.09314,14.27592 12.24951,21.35474c4.76429,8.11419 9.42422,16.27804 14,24.5c4.70294,8.44929 9.49287,16.84045 14.375,25.1875c0.58209,1.00176 1.16418,2.00353 1.76392,3.03564c2.45737,4.22061 4.92758,8.41969 7.55249,12.53858c0.38688,0.62366 0.77376,1.24733 1.17236,1.88989c0.97359,1.56266 1.9734,3.10892 2.97607,4.65308c3.50243,9.64641 -1.98813,21.60094 -4.72265,31.04687c-0.4982,1.74405 -0.99565,3.4883 -1.4924,5.23276c-1.3082,4.58618 -2.6267,9.16932 -3.94736,13.75192c-1.31823,4.58138 -2.62619,9.16569 -3.93524,13.7497c-5.18902,18.15497 -10.42543,36.29605 -15.74219,54.41406c-0.66,0 -1.32,0 -2,0c-0.32049,-0.57105 -0.64099,-1.14211 -0.97119,-1.73047c-6.76214,-12.03646 -13.60523,-24.01946 -20.58399,-35.93164c-4.53398,-7.74976 -9.00025,-15.53669 -13.44482,-23.33789c-5.53969,-9.72134 -11.13375,-19.40895 -16.78345,-29.06689c-6.15422,-10.52396 -12.24025,-21.08691 -18.32544,-31.65088c-3.12791,-5.42883 -6.25969,-10.85542 -9.39111,-16.28223c-1.25002,-2.16666 -2.50002,-4.33332 -3.75,-6.5c-0.92813,-1.60875 -0.92813,-1.60875 -1.875,-3.25c-170.625,-295.75 -170.625,-295.75 -172.5022,-299.00391c-1.24256,-2.15371 -2.48523,-4.30735 -3.72802,-6.46093c-2.89793,-5.022 -5.79481,-10.04459 -8.68754,-15.06958c-1.01671,-1.76604 -2.0338,-3.53185 -3.05099,-5.29761c-1.27026,-2.20531 -2.53984,-4.41101 -3.80859,-6.61719c-3.63407,-6.30712 -7.32864,-12.57333 -11.09766,-18.80078c-2.74455,2.45087 -4.32102,5.10395 -6.08203,8.32031c-0.8926,1.61987 -0.8926,1.61987 -1.80322,3.27246c-0.4705,0.86233 -0.4705,0.86233 -0.9505,1.74207c-0.99212,1.81832 -1.99016,3.63326 -2.98993,5.44739c-1.38318,2.51015 -2.76442,5.02136 -4.14453,7.5332c-3.02264,5.49437 -6.08753,10.96502 -9.15479,16.43457c-0.57532,1.0269 -1.15065,2.0538 -1.74341,3.11182c-4.39406,7.83738 -8.81398,15.65998 -13.23974,23.47949c-6.33494,11.19846 -12.61208,22.42923 -18.89185,33.65869c-7.34211,13.12913 -14.69829,26.24966 -22.10791,39.34082c-6.33493,11.19868 -12.61223,22.42956 -18.89209,33.65918c-7.34131,13.1277 -14.69588,26.24726 -22.10571,39.33643c-3.98487,7.04333 -7.94428,14.10064 -11.89429,21.16357c-4.48035,8.01122 -8.97806,16.01218 -13.5,24c-6.87372,12.1441 -13.68902,24.32063 -20.5,36.5c-7.34211,13.12913 -14.69829,26.24966 -22.10791,39.34082c-6.33493,11.19868 -12.61223,22.42956 -18.89209,33.65918c-7.34131,13.1277 -14.69588,26.24726 -22.10571,39.33643c-3.98487,7.04333 -7.94428,14.10064 -11.89429,21.16357c-4.48035,8.01122 -8.97801,16.01221 -13.5,24c-5.20248,9.19025 -10.39098,18.38838 -15.51782,27.62109c-2.56413,4.61086 -5.14586,9.19497 -7.90015,13.69532c-0.43087,0.71744 -0.86174,1.43488 -1.30566,2.17407c-0.77283,1.27939 -1.56344,2.54833 -2.37696,3.80224c-3.58291,5.99409 -2.06332,11.46406 -0.51033,17.88089c1.19534,4.58409 2.47653,9.14398 3.75545,13.7053c0.48312,1.74248 0.96562,3.48513 1.44756,5.22793c1.0297,3.71849 2.06374,7.43573 3.10127,11.15204c1.62889,5.83466 3.24764,11.67211 4.86523,17.50992c4.82175,17.3911 9.67202,34.77424 14.52922,52.15547c1.64392,5.88307 3.28515,11.76689 4.92595,17.65084c1.31348,4.70824 2.63244,9.41491 3.9557,14.12041c0.81387,2.89759 1.62361,5.79632 2.43231,8.69536c0.37312,1.33399 0.74804,2.66747 1.12491,4.0004c0.5108,1.8073 1.01471,3.61653 1.51824,5.42586c0.28291,1.00778 0.56582,2.01556 0.8573,3.05388c0.59778,2.62898 0.59778,2.62898 0.59778,6.62898c0.66,0 1.32,0 2,0c0.27006,-0.71446 0.54012,-1.42893 0.81836,-2.16504c1.19357,-2.86359 2.56991,-5.48965 4.08789,-8.19433c0.86033,-1.53612 0.86033,-1.53612 1.73804,-3.10328c0.61238,-1.08482 1.22477,-2.16965 1.85571,-3.28735c0.63365,-1.12672 1.26731,-2.25344 1.92017,-3.41431c3.82984,-6.79087 7.71319,-13.54554 11.69043,-20.25097c3.74245,-6.31197 7.41338,-12.66417 11.0769,-19.02222c0.95592,-1.65866 0.95592,-1.65866 1.93115,-3.35083c1.96096,-3.4036 3.92123,-6.80759 5.88135,-10.21167c7.87619,-13.67579 15.7712,-27.33961 23.73291,-40.96582c6.16628,-10.56038 12.27205,-21.15545 18.37598,-31.75195c3.12791,-5.42883 6.25969,-10.85542 9.39111,-16.28223c1.25002,-2.16666 2.50002,-4.33332 3.75,-6.5c12.5,-21.66667 25,-43.33333 37.5,-65c0.61883,-1.07266 1.23766,-2.14532 1.87524,-3.25049c1.24912,-2.16508 2.4983,-4.33012 3.74756,-6.49512c3.13922,-5.44055 6.27711,-10.88186 9.41236,-16.3247c6.61707,-11.48418 13.26118,-22.95166 19.94775,-34.39551c6.16628,-10.56038 12.27205,-21.15545 18.37598,-31.75195c3.12791,-5.42883 6.25969,-10.85542 9.39111,-16.28223c1.25002,-2.16666 2.50002,-4.33332 3.75,-6.5c2.5,-4.33333 5,-8.66667 7.5,-13c0.61956,-1.07395 1.23911,-2.1479 1.87744,-3.25439c1.24168,-2.15213 2.48354,-4.30415 3.72559,-6.45606c2.90864,-5.03986 5.81549,-10.08072 8.71551,-15.12555c1.02422,-1.7815 2.04904,-3.56264 3.07404,-5.34369c1.28375,-2.23108 2.56638,-4.46281 3.84765,-6.69531c3.23178,-5.61365 6.53548,-11.15791 10.00977,-16.625c2.65566,2.3997 4.27999,4.96444 6.04688,8.06641c0.58974,1.02931 1.17949,2.05863 1.7871,3.11914c0.63229,1.11439 1.26457,2.22879 1.91602,3.37695c0.66941,1.17151 1.33934,2.34273 2.00977,3.51367c1.39263,2.43327 2.78303,4.86779 4.17187,7.30322c3.16866,5.55219 6.3702,11.08539 9.56836,16.62061c1.25144,2.16919 2.50274,4.33846 3.75391,6.50781c2.4854,4.30821 4.97251,8.61542 7.46093,12.92188c6.82019,11.8066 13.60839,23.63058 20.36252,35.47503c4.59658,8.05791 9.23588,16.08946 13.92264,24.09528c5.03181,8.59523 10.00389,17.22312 14.9375,25.875c5.18692,9.0958 10.38932,18.18212 15.625,27.25c0.61553,1.06605 1.23105,2.13211 1.86523,3.23047c1.85697,3.21511 3.71451,6.42988 5.57227,9.64453c8.06089,13.94844 16.09709,27.91004 24.07736,41.90472c4.59658,8.05791 9.23588,16.08946 13.92264,24.09528c5.03181,8.59523 10.00389,17.22312 14.9375,25.875c7.02854,12.32525 14.1049,24.62222 21.20361,36.90723c3.74867,6.48902 7.49198,12.98114 11.23633,19.47265c3.11074,5.3926 6.22269,10.7845 9.3374,16.17481c6.88031,11.91051 13.73144,23.83701 20.54856,35.78375c5.87031,10.28668 11.78793,20.54504 17.7366,30.78656c5.77735,-19.31515 11.07323,-38.75546 16.35403,-58.21057c2.37854,-8.76266 4.76439,-17.52332 7.15004,-26.28405c0.55364,-2.03316 1.10722,-4.06634 1.66073,-6.09954c5.83919,-21.44778 11.72223,-42.88341 17.6167,-64.31605c2.35589,-8.56625 4.71106,-17.1327 7.06616,-25.69916c0.25756,-0.93682 0.51512,-1.87364 0.78049,-2.83885c5.4023,-19.65057 10.78495,-39.30649 16.16364,-58.96353c8.54627,-31.23329 17.11353,-62.46075 25.69512,-93.68435c7.18207,-26.13162 14.35619,-52.26538 21.51309,-78.4039c7.68797,-28.0781 15.39688,-56.15042 23.11191,-84.2211c7.81147,-28.42208 15.60808,-56.84819 23.38809,-85.2789c8.02477,-29.32474 16.06527,-58.64512 24.1199,-87.96167c0.80318,-2.92333 1.60629,-5.84667 2.4094,-8.77002c0.51627,-1.87915 1.03254,-3.7583 1.54883,-5.63745c0.2509,-0.91327 0.50181,-1.82655 0.76033,-2.7675c1.21519,-4.42265 2.43098,-8.84513 3.64808,-13.26726c0.46137,-1.6764 0.92272,-3.3528 1.38407,-5.02921c0.22242,-0.80819 0.44484,-1.61638 0.674,-2.44907c1.27968,-4.65252 2.55393,-9.30648 3.82261,-13.96201c0.75481,-2.76887 1.51196,-5.53709 2.26945,-8.30523c0.50911,-1.86433 1.01469,-3.72963 1.52018,-5.59495c0.29765,-1.08668 0.59531,-2.17337 0.90199,-3.29298c0.25632,-0.94199 0.51265,-1.88398 0.77675,-2.85451c0.66441,-2.10814 0.66441,-2.10814 1.66441,-3.10814c2.86092,-0.09522 5.69764,-0.12553 8.55884,-0.11353c0.89747,-0.00014 1.79495,-0.00029 2.71962,-0.00044c2.98142,0.0007 5.96278,0.0085 8.9442,0.01631c2.06123,0.00187 4.12246,0.00329 6.1837,0.00429c5.43668,0.00383 10.87334,0.01366 16.31001,0.02471c5.54311,0.01021 11.08622,0.01479 16.62933,0.01983c10.88478,0.01074 21.76954,0.02782 32.6543,0.04883c-6.13031,23.4318 -12.6737,46.73942 -19.28521,70.03922c-1.4362,5.06348 -2.86962,10.12775 -4.30317,15.19198c-1.76186,6.22361 -3.52383,12.44718 -5.28683,18.67046c-5.28824,18.66763 -10.55942,37.34006 -15.82413,56.01434c-0.90342,3.20435 -1.80704,6.40866 -2.71064,9.61297c-8.30311,29.44426 -16.59814,58.89079 -24.89126,88.33787c-2.89665,10.28536 -5.79366,20.57063 -8.69095,30.85582c-0.30972,1.0995 -0.30972,1.0995 -0.6257,2.22122c-1.04336,3.70386 -2.08673,7.40771 -3.1301,11.11157c-1.87574,6.65874 -3.75144,13.31749 -5.62714,19.97624c-1.04162,3.69777 -2.08324,7.39554 -3.12487,11.09331c-0.41667,1.47917 -0.83333,2.95833 -1.25,4.4375c-20.625,73.21875 -41.25,146.4375 -123.12501,437.09377c-0.41664,1.4791 -0.83329,2.9582 -1.24994,4.4373c-1.04195,3.69894 -2.08391,7.39788 -3.12587,11.09681c-1.87158,6.64404 -3.74313,13.28808 -5.61455,19.93216c-1.03705,3.68182 -2.07411,7.36362 -3.11119,11.04543c-0.20552,0.72964 -0.41104,1.45927 -0.62279,2.21102c-2.76725,9.82405 -5.5354,19.64785 -8.30437,29.47141c-0.86989,3.08619 -1.73966,6.17241 -2.60931,9.25867c-0.43202,1.53314 -0.86403,3.06628 -1.29605,4.59943c-0.21301,0.75594 -0.42603,1.51189 -0.64549,2.29074c-1.26796,4.49933 -2.53688,8.99838 -3.80656,13.49723c-4.04585,14.337 -8.07322,28.6784 -12.03574,43.03869c-0.65824,2.37853 -1.3166,4.75703 -1.9751,7.13549c-1.2063,4.35721 -2.40249,8.71702 -3.59278,13.07862c-0.52645,1.904 -1.05328,3.8079 -1.58056,5.71167c-0.23234,0.86283 -0.46467,1.72566 -0.70404,2.61464c-0.55662,1.99263 -1.19512,3.9621 -1.85065,5.92442c-0.66,0.33 -1.32,0.66 -2,1c-7.16341,-12.24911 -14.30175,-24.51111 -21.375,-36.8125c-5.14153,-8.93626 -10.35471,-17.82661 -15.625,-26.6875c-5.90922,-9.93511 -11.73079,-19.91651 -17.4939,-29.93701c-5.88029,-10.2241 -11.82119,-20.41217 -17.77221,-30.59522c-2.914,-4.98768 -5.82372,-9.97786 -8.73389,-14.96777c-1.16665,-2.00001 -2.33331,-4.00001 -3.5,-6c-2.33333,-4 -4.66667,-8 -7,-12c-0.57742,-0.98984 -1.15484,-1.97968 -1.74976,-2.99951c-1.16756,-2.00158 -2.33504,-4.00321 -3.50244,-6.00488c-2.90231,-4.97621 -5.806,-9.95161 -8.71264,-14.9253c-6.00293,-10.27564 -11.97704,-20.5667 -17.91016,-30.88281c-5.14162,-8.9362 -10.35471,-17.82661 -15.625,-26.6875c-5.90922,-9.93511 -11.73079,-19.91651 -17.4939,-29.93701c-5.88029,-10.2241 -11.82119,-20.41217 -17.77221,-30.59522c-2.914,-4.98768 -5.82372,-9.97786 -8.73389,-14.96777c-1.16665,-2.00001 -2.33331,-4.00001 -3.5,-6c-2.33333,-4 -4.66667,-8 -7,-12c-0.57742,-0.98984 -1.15484,-1.97968 -1.74976,-2.99951c-1.16756,-2.00158 -2.33504,-4.00321 -3.50244,-6.00488c-2.90231,-4.97621 -5.806,-9.95161 -8.71264,-14.9253c-6.00293,-10.27564 -11.97704,-20.5667 -17.91016,-30.88281c-5.78904,-10.06142 -11.6775,-20.06012 -17.61768,-30.03296c-3.44606,-5.79597 -6.85902,-11.60817 -10.21044,-17.45923c-0.34205,-0.59657 -0.68409,-1.19315 -1.0365,-1.8078c-1.636,-2.85552 -3.26632,-5.71399 -4.88929,-8.57696c-0.58136,-1.01772 -1.16273,-2.03543 -1.76171,-3.08399c-0.50564,-0.89122 -1.01127,-1.78245 -1.53223,-2.70068c-1.67729,-2.68626 -3.55485,-5.09179 -5.57715,-7.52588c-0.35079,0.63164 -0.70157,1.26328 -1.06299,1.91406c-7.05676,12.69166 -14.19589,25.32331 -21.54297,37.84961c-4.52004,7.71428 -8.96871,15.46754 -13.39404,23.23633c-4.9535,8.69418 -9.94388,17.36492 -15,26c-5.00754,8.55544 -9.96155,17.14024 -14.875,25.75c-0.33288,0.58326 -0.66576,1.16652 -1.00873,1.76746c-2.37365,4.15995 -4.7452,8.32111 -7.11627,12.48254c-2.70689,4.75082 -5.4147,9.50112 -8.125,14.25c-0.33304,0.58358 -0.66608,1.16717 -1.00922,1.76843c-5.14012,9.00278 -10.34512,17.96619 -15.5816,26.91321c-4.4309,7.58081 -8.80703,15.19216 -13.15918,22.81836c-0.33288,0.58326 -0.66576,1.16652 -1.00873,1.76746c-2.37365,4.15995 -4.7452,8.32111 -7.11627,12.48254c-2.70689,4.75082 -5.4147,9.50112 -8.125,14.25c-0.33304,0.58358 -0.66608,1.16717 -1.00922,1.76843c-5.13931,9.00136 -10.34289,17.9637 -15.5794,26.90882c-4.80073,8.21218 -9.52787,16.46552 -14.2395,24.729c-4.82481,8.46196 -9.67257,16.91018 -14.54688,25.34375c-5.19241,8.98541 -10.35666,17.98645 -15.5,27c-8.23573,14.43139 -16.54049,28.82256 -24.85449,43.20898c-7.07681,12.24761 -14.13408,24.50588 -21.14551,36.79102c-5.357,9.38541 -10.72871,18.76212 -16.125,28.125c-0.60328,1.04801 -1.20656,2.09602 -1.82812,3.17578c-1.67542,2.9038 -3.35923,5.80251 -5.04688,8.69922c-0.55784,0.96519 -1.11568,1.93037 -1.69043,2.9248c-0.5327,0.90912 -1.06541,1.81823 -1.61426,2.75489c-0.47163,0.80937 -0.94327,1.61874 -1.4292,2.45263c-1.26611,1.86768 -1.26611,1.86768 -3.26611,2.86768c-6.0073,-20.17723 -11.58797,-40.46863 -17.1686,-60.76683c-1.31598,-4.78482 -2.6342,-9.56903 -3.95225,-14.35329c-2.20114,-7.99048 -4.40132,-15.98123 -6.60083,-23.97217c-4.86101,-17.65943 -9.73014,-35.31662 -14.60046,-52.97348c-0.73922,-2.6801 -1.47833,-5.36023 -2.21741,-8.04037c-5.66998,-20.56044 -11.34997,-41.11807 -17.04639,-61.6712c-0.26919,-0.97129 -0.53839,-1.94258 -0.81574,-2.9433c-2.60466,-9.39742 -5.21031,-18.79457 -7.81786,-28.19119c-0.94427,-3.40302 -1.88819,-6.80614 -2.83207,-10.20927c-0.64662,-2.33075 -1.29382,-4.66134 -1.94104,-6.99192c-0.38781,-1.39811 -0.7756,-2.79623 -1.16336,-4.19435c-0.33398,-1.2032 -0.66796,-2.40639 -1.01207,-3.64604c-0.63991,-2.34342 -1.25781,-4.68643 -1.83192,-7.04659c-4.54112,6.51157 -8.41141,13.23944 -12.125,20.25c-4.14964,7.7481 -8.36071,15.44747 -12.75,23.0625c-4.59634,7.97985 -9.10077,16.0066 -13.5625,24.0625c-5.73724,10.35662 -11.52787,20.68109 -17.36719,30.98047c-4.07961,7.20665 -8.13534,14.4268 -12.19531,21.64453c-31.35,0 -62.7,0 -95,0c9.14442,-18.28883 9.14442,-18.28883 14.125,-26.9375c1.12942,-1.98018 2.25831,-3.96066 3.38672,-5.94141c0.86117,-1.50844 0.86117,-1.50844 1.73974,-3.04736c2.92118,-5.13511 5.80329,-10.29198 8.68604,-15.44873c1.17578,-2.10156 2.35156,-4.20313 3.52734,-6.30469c0.87568,-1.56573 0.87568,-1.56573 1.76905,-3.16308c2.92009,-5.22017 5.84325,-10.43862 8.76611,-15.65723c1.16668,-2.08333 2.33335,-4.16666 3.5,-6.25c16.33333,-29.16667 32.66667,-58.33333 49,-87.5c0.57774,-1.03173 1.15548,-2.06347 1.75073,-3.12646c1.16405,-2.07856 2.32827,-4.15701 3.49268,-6.23536c2.95823,-5.2807 5.91314,-10.56321 8.86206,-15.84912c0.89126,-1.59509 0.89126,-1.59509 1.80054,-3.22241c1.17693,-2.10855 2.35098,-4.21871 3.52197,-6.33057c2.7143,-4.8749 5.47728,-9.69344 8.4314,-14.42749c0.52053,-0.84772 1.04107,-1.69544 1.57739,-2.56884c0.9623,-1.55641 1.94493,-3.10053 2.95263,-4.62793c4.07877,-6.64329 3.1147,-11.9847 1.41628,-19.38854c-0.90867,-3.47939 -1.87685,-6.93729 -2.86427,-10.39515c-0.37575,-1.33946 -0.75071,-2.67913 -1.12496,-4.019c-0.81209,-2.90168 -1.62925,-5.80187 -2.45036,-8.70101c-1.33743,-4.72298 -2.66284,-9.44929 -3.98621,-14.17624c-1.43286,-5.1166 -2.86616,-10.23309 -4.30288,-15.34861c-5.28055,-18.80587 -10.48589,-37.63242 -15.68714,-56.46035c-1.65553,-5.99275 -3.31252,-11.98511 -4.96969,-17.97741c-7.81232,-28.25138 -15.6087,-56.50714 -23.40058,-84.76416c-7.78583,-28.23471 -15.58521,-56.46565 -23.39459,-84.69385c-0.26984,-0.97537 -0.53967,-1.95073 -0.81769,-2.95566c-2.46014,-8.89244 -4.92047,-17.78484 -7.38098,-26.67718c-3.81212,-13.77713 -7.62344,-27.55448 -11.43414,-41.332c-0.4019,-1.45306 -0.4019,-1.45306 -0.81192,-2.93547c-2.16386,-7.82338 -4.32767,-15.64676 -6.49147,-23.47015c-1.89364,-6.84657 -3.7873,-13.69314 -5.68099,-20.5397c-0.26789,-0.96856 -0.53578,-1.93712 -0.8118,-2.93504c-3.81405,-13.78956 -7.62898,-27.57888 -11.44444,-41.36805c-2.45905,-8.88719 -4.91786,-17.77446 -7.37657,-26.66175c-0.2694,-0.97375 -0.53879,-1.94749 -0.81635,-2.95075c-7.84675,-28.36312 -15.67985,-56.72997 -23.50189,-85.09992c-8.16528,-29.61458 -16.34474,-59.22519 -24.54645,-88.8297c-0.75142,-2.71256 -1.50264,-5.42516 -2.25381,-8.13779c-1.17395,-4.23919 -2.34853,-8.47822 -3.5236,-12.7171c-0.42708,-1.54089 -0.85399,-3.08181 -1.28069,-4.6228c-0.3979,-1.43679 -0.79614,-2.87347 -1.19477,-4.31006c-0.37629,-1.35738 -0.75133,-2.71511 -1.12499,-4.07322c-0.90448,-3.27286 -1.84084,-6.53068 -2.84009,-9.77596c-0.37653,-1.24138 -0.75306,-2.48276 -1.14099,-3.76175c-0.51231,-1.6392 -0.51231,-1.6392 -1.03498,-3.31151c-0.63806,-3.0764 -0.47321,-4.97868 0.38361,-7.97194c9.34476,-0.91837 18.69002,-1.83149 28.03593,-2.73806c4.34049,-0.4212 8.68079,-0.84415 13.02071,-1.27122c4.1947,-0.41271 8.38983,-0.82067 12.5853,-1.22545c1.59398,-0.1546 3.18781,-0.31087 4.78146,-0.4689c8.21182,-0.81319 16.31219,-1.49707 24.5766,-1.29637z"/>
  <path id="svg_2" fill="#ffffff" d="m1032.96289,176.87558c0.85667,0.0036 1.71335,0.00719 2.59598,0.01089c0.89747,-0.00014 1.79495,-0.00029 2.71962,-0.00044c2.98142,0.0007 5.96278,0.0085 8.9442,0.01631c2.06123,0.00187 4.12246,0.00329 6.1837,0.00429c5.43668,0.00383 10.87334,0.01366 16.31001,0.02471c5.54311,0.01021 11.08622,0.01479 16.62933,0.01983c10.88478,0.01074 21.76954,0.02782 32.6543,0.04883c-6.13031,23.4318 -12.6737,46.73942 -19.28521,70.03922c-1.4362,5.06348 -2.86962,10.12775 -4.30317,15.19198c-1.76186,6.22361 -3.52383,12.44718 -5.28683,18.67046c-5.28824,18.66763 -10.55942,37.34006 -15.82413,56.01434c-0.90342,3.20435 -1.80704,6.40866 -2.71064,9.61297c-8.30311,29.44426 -16.59814,58.89079 -24.89126,88.33787c-2.89665,10.28536 -5.79366,20.57063 -8.69095,30.85582c-0.30972,1.0995 -0.30972,1.0995 -0.6257,2.22122c-1.04336,3.70386 -2.08673,7.40771 -3.1301,11.11157c-1.87574,6.65874 -3.75144,13.31749 -5.62714,19.97624c-1.04162,3.69777 -2.08324,7.39554 -3.12487,11.09331c-0.41667,1.47917 -0.83333,2.95833 -1.25,4.4375c-20.625,73.21875 -41.25,146.4375 -123.12501,437.09377c-0.41664,1.4791 -0.83329,2.9582 -1.24994,4.4373c-1.04195,3.69894 -2.08391,7.39788 -3.12587,11.09681c-1.87158,6.64404 -3.74313,13.28808 -5.61455,19.93216c-1.03705,3.68182 -2.07411,7.36362 -3.11119,11.04543c-0.20552,0.72964 -0.41104,1.45927 -0.62279,2.21102c-2.76725,9.82405 -5.5354,19.64785 -8.30437,29.47141c-0.86989,3.08619 -1.73966,6.17241 -2.60931,9.25867c-0.43202,1.53314 -0.86403,3.06628 -1.29605,4.59943c-0.21301,0.75594 -0.42603,1.51189 -0.64549,2.29074c-1.26796,4.49933 -2.53688,8.99838 -3.80656,13.49723c-4.04585,14.337 -8.07322,28.6784 -12.03575,43.03869c-0.65823,2.37853 -1.31659,4.75703 -1.97509,7.13549c-1.2063,4.35721 -2.40249,8.71702 -3.59278,13.07862c-0.52645,1.904 -1.05328,3.8079 -1.58056,5.71167c-0.23234,0.86283 -0.46467,1.72566 -0.70404,2.61464c-0.55662,1.99263 -1.19512,3.9621 -1.85065,5.92442c-0.66,0.33 -1.32,0.66 -2,1c-7.16341,-12.24911 -14.30175,-24.51111 -21.375,-36.8125c-5.14153,-8.93626 -10.35471,-17.82661 -15.625,-26.6875c-5.90922,-9.93511 -11.73079,-19.91651 -17.4939,-29.93701c-5.88029,-10.2241 -11.82119,-20.41217 -17.77221,-30.59522c-2.914,-4.98768 -5.82372,-9.97786 -8.73389,-14.96777c-1.16665,-2.00001 -2.33331,-4.00001 -3.5,-6c-2.33333,-4 -4.66667,-8 -7,-12c-0.57742,-0.98984 -1.15484,-1.97968 -1.74976,-2.99951c-1.16756,-2.00158 -2.33504,-4.00321 -3.50244,-6.00488c-2.90231,-4.97621 -5.806,-9.95161 -8.71264,-14.9253c-6.00293,-10.27564 -11.97704,-20.5667 -17.91016,-30.88281c-5.14162,-8.9362 -10.35471,-17.82661 -15.625,-26.6875c-5.90922,-9.93511 -11.73079,-19.91651 -17.4939,-29.93701c-5.88029,-10.2241 -11.82119,-20.41217 -17.77221,-30.59522c-2.914,-4.98768 -5.82372,-9.97786 -8.73389,-14.96777c-1.16665,-2.00001 -2.33331,-4.00001 -3.5,-6c-2.33333,-4 -4.66667,-8 -7,-12c-0.57742,-0.98984 -1.15484,-1.97968 -1.74976,-2.99951c-1.16756,-2.00158 -2.33504,-4.00321 -3.50244,-6.00488c-2.90231,-4.97621 -5.806,-9.95161 -8.71264,-14.9253c-6.00293,-10.27564 -11.97704,-20.5667 -17.91016,-30.88281c-5.78904,-10.06142 -11.6775,-20.06012 -17.61768,-30.03296c-3.44607,-5.79597 -6.85902,-11.60817 -10.21045,-17.45923c-0.34204,-0.59657 -0.68408,-1.19315 -1.03649,-1.8078c-1.636,-2.85552 -3.26632,-5.71399 -4.88929,-8.57696c-0.58136,-1.01772 -1.16273,-2.03543 -1.76172,-3.08399c-0.50563,-0.89122 -1.01126,-1.78245 -1.53222,-2.70068c-1.67729,-2.68626 -3.55485,-5.09179 -5.57715,-7.52588c-0.35079,0.63164 -0.70157,1.26328 -1.06299,1.91406c-7.05676,12.69166 -14.19589,25.32331 -21.54297,37.84961c-4.52004,7.71428 -8.96871,15.46754 -13.39404,23.23633c-4.9535,8.69418 -9.94388,17.36492 -15,26c-5.00754,8.55544 -9.96155,17.14024 -14.875,25.75c-0.33288,0.58326 -0.66576,1.16652 -1.00873,1.76746c-2.37365,4.15995 -4.7452,8.32111 -7.11627,12.48254c-2.70689,4.75082 -5.4147,9.50112 -8.125,14.25c-0.33304,0.58358 -0.66608,1.16717 -1.00922,1.76843c-5.14012,9.00278 -10.34512,17.96619 -15.5816,26.91321c-4.4309,7.58081 -8.80703,15.19216 -13.15918,22.81836c-0.33288,0.58326 -0.66576,1.16652 -1.00873,1.76746c-2.37365,4.15995 -4.7452,8.32111 -7.11627,12.48254c-2.70689,4.75082 -5.4147,9.50112 -8.125,14.25c-0.33304,0.58358 -0.66608,1.16717 -1.00922,1.76843c-5.13931,9.00136 -10.34289,17.9637 -15.5794,26.90882c-4.80073,8.21218 -9.52787,16.46552 -14.23951,24.729c-4.8248,8.46196 -9.67256,16.91018 -14.54687,25.34375c-5.19241,8.98541 -10.35666,17.98645 -15.5,27c-8.23573,14.43139 -16.54049,28.82256 -24.85449,43.20898c-7.07681,12.24761 -14.13408,24.50588 -21.14551,36.79102c-5.357,9.38541 -10.72871,18.76212 -16.125,28.125c-0.60328,1.04801 -1.20656,2.09602 -1.82813,3.17578c-1.67541,2.9038 -3.35922,5.80251 -5.04687,8.69922c-0.83676,1.44778 -0.83676,1.44778 -1.69043,2.9248c-0.5327,0.90912 -1.06541,1.81823 -1.61426,2.75489c-0.47163,0.80937 -0.94327,1.61874 -1.4292,2.45263c-1.26611,1.86768 -1.26611,1.86768 -3.26611,2.86768c-6.0073,-20.17723 -11.58797,-40.46863 -17.1686,-60.76683c-1.31598,-4.78482 -2.6342,-9.56903 -3.95225,-14.35329c-2.20114,-7.99048 -4.40132,-15.98123 -6.60083,-23.97216c-4.3671,-15.86513 -8.74066,-31.72848 -13.1162,-47.59128c-1.48064,-5.36803 -2.96042,-10.73629 -4.43956,-16.10473c-5.13547,-18.63747 -10.28959,-37.26953 -15.48374,-55.89075c-0.81716,-2.93042 -1.63357,-5.86104 -2.44968,-8.79175c-0.26525,-0.95252 -0.53049,-1.90504 -0.80378,-2.88642c-0.5296,-1.90194 -1.05916,-3.80389 -1.58868,-5.70586c-1.53401,-5.50808 -3.07316,-11.01469 -4.61622,-16.52024c-0.94754,-3.38512 -1.89042,-6.77152 -2.83207,-10.15828c-0.43576,-1.56339 -0.8735,-3.12624 -1.31341,-4.68847c-0.60226,-2.13964 -1.19742,-4.28114 -1.79099,-6.42321c-0.50097,-1.79147 -0.50097,-1.79147 -1.01207,-3.61913c-2.66269,-11.29061 -2.66269,-11.29061 0.4923,-16.82057c0.79168,-1.423 0.79168,-1.423 1.59936,-2.87475c0.5821,-0.99653 1.16419,-1.99306 1.76392,-3.01978c0.59434,-1.05518 1.18868,-2.11036 1.80103,-3.19751c1.81757,-3.21663 3.66224,-6.41648 5.51147,-9.61499c1.01724,-1.78554 2.03297,-3.57194 3.04687,-5.35937c1.94452,-3.42115 3.90014,-6.83561 5.86329,-10.2461c3.36483,-5.85739 6.66829,-11.7485 9.96484,-17.64453c0.86577,-1.5482 0.86577,-1.5482 1.74902,-3.12769c1.79262,-3.20709 3.58435,-6.41467 5.37598,-9.62231c2.56136,-4.58397 5.12413,-9.16715 7.6875,-13.75c0.5883,-1.05349 1.17659,-2.10697 1.78271,-3.19238c0.54995,-0.98324 1.0999,-1.96647 1.66651,-2.97949c0.72256,-1.2931 0.72256,-1.2931 1.45972,-2.61231c0.46317,-0.81372 0.92635,-1.62744 1.40356,-2.46582c0.51281,-0.92974 1.02561,-1.85947 1.55395,-2.81738c0.4772,-0.72027 0.95439,-1.44053 1.44605,-2.18262c0.66,0 1.32,0 2,0c2.87724,10.33271 5.75191,20.66614 8.625,31c0.2193,0.78874 0.4386,1.57749 0.66455,2.39013c8.33982,29.99764 16.61369,60.01319 24.85192,90.03888c0.90582,3.30107 1.81213,6.60201 2.71847,9.90294c0.61509,2.24113 1.22934,4.48249 1.84352,6.72387c0.38004,1.38457 0.76013,2.76912 1.14029,4.15365c0.1799,0.65704 0.3598,1.31407 0.54514,1.99101c0.8989,3.26929 1.81974,6.53064 2.77908,9.78261c0.36738,1.25001 0.73476,2.50002 1.11328,3.78791c0.49597,1.65834 0.49597,1.65834 1.00195,3.35019c0.7168,2.87881 0.7168,2.87881 0.7168,6.87881c0.66,0 1.32,0 2,0c0.27006,-0.71446 0.54012,-1.42893 0.81836,-2.16504c1.19357,-2.86359 2.56991,-5.48965 4.08789,-8.19433c0.57355,-1.02408 1.1471,-2.04816 1.73804,-3.10328c0.61238,-1.08482 1.22477,-2.16965 1.85571,-3.28735c0.63365,-1.12672 1.26731,-2.25344 1.92017,-3.41431c3.82984,-6.79087 7.71319,-13.54554 11.69043,-20.25097c3.74245,-6.31197 7.41338,-12.66417 11.0769,-19.02222c0.63728,-1.10577 1.27456,-2.21155 1.93115,-3.35083c1.96096,-3.4036 3.92123,-6.80759 5.88135,-10.21167c7.87619,-13.67579 15.7712,-27.33961 23.73291,-40.96582c6.16628,-10.56038 12.27205,-21.15545 18.37598,-31.75195c3.12791,-5.42883 6.25969,-10.85542 9.39111,-16.28223c1.25002,-2.16666 2.50002,-4.33332 3.75,-6.5c18.75,-32.5 18.75,-32.5 37.5,-65c0.61883,-1.07266 1.23766,-2.14532 1.87524,-3.25049c1.24912,-2.16508 2.4983,-4.33012 3.74756,-6.49512c3.13922,-5.44055 6.27711,-10.88186 9.41236,-16.3247c6.61707,-11.48418 13.26118,-22.95166 19.94775,-34.39551c6.16628,-10.56038 12.27205,-21.15545 18.37598,-31.75195c3.12791,-5.42883 6.25969,-10.85542 9.39111,-16.28223c1.25002,-2.16666 2.50002,-4.33332 3.75,-6.5c2.5,-4.33333 5,-8.66667 7.5,-13c0.61956,-1.07395 1.23911,-2.1479 1.87744,-3.25439c1.24168,-2.15213 2.48354,-4.30415 3.72559,-6.45606c2.90864,-5.03986 5.81549,-10.08072 8.71551,-15.12555c1.02422,-1.7815 2.04904,-3.56264 3.07404,-5.34369c1.28375,-2.23108 2.56638,-4.46281 3.84765,-6.69531c3.23178,-5.61365 6.53548,-11.15791 10.00977,-16.625c2.65566,2.3997 4.27999,4.96444 6.04687,8.06641c0.58975,1.02931 1.1795,2.05863 1.78711,3.11914c0.63229,1.11439 1.26457,2.22879 1.91602,3.37695c0.66941,1.17151 1.33934,2.34273 2.00977,3.51367c1.39263,2.43327 2.78303,4.86779 4.17187,7.30322c3.16866,5.55219 6.3702,11.08539 9.56836,16.62061c1.25144,2.16919 2.50274,4.33846 3.75391,6.50781c2.4854,4.30821 4.97251,8.61542 7.46093,12.92188c6.82019,11.80661 13.60839,23.63058 20.36252,35.47503c4.59658,8.05791 9.23588,16.08946 13.92264,24.09528c5.03181,8.59523 10.00389,17.22312 14.9375,25.875c5.18692,9.0958 10.38931,18.18212 15.625,27.25c0.92329,1.59908 0.92329,1.59908 1.86523,3.23047c1.85697,3.21511 3.71451,6.42988 5.57227,9.64453c8.06089,13.94844 16.09709,27.91004 24.07736,41.90472c4.59658,8.05791 9.23588,16.08946 13.92264,24.09528c5.03181,8.59523 10.00389,17.22312 14.9375,25.875c7.02853,12.32525 14.1049,24.62222 21.20361,36.90723c3.74867,6.48902 7.49198,12.98114 11.23633,19.47265c3.11074,5.3926 6.22269,10.7845 9.3374,16.17481c6.88031,11.91051 13.73144,23.83701 20.54856,35.78375c5.87031,10.28668 11.78793,20.54504 17.7366,30.78656c5.77735,-19.31515 11.07323,-38.75546 16.35403,-58.21057c2.37854,-8.76266 4.76439,-17.52332 7.15004,-26.28405c0.55364,-2.03316 1.10722,-4.06634 1.66073,-6.09954c5.83919,-21.44778 11.72223,-42.88341 17.6167,-64.31605c2.35589,-8.56625 4.71106,-17.1327 7.06616,-25.69916c0.25756,-0.93682 0.51512,-1.87364 0.78049,-2.83885c5.4023,-19.65057 10.78495,-39.30649 16.16364,-58.96353c8.54627,-31.23329 17.11353,-62.46075 25.69512,-93.68435c7.18207,-26.13162 14.35619,-52.26538 21.51309,-78.4039c7.68797,-28.0781 15.39688,-56.15042 23.11191,-84.2211c7.81147,-28.42208 15.60808,-56.84819 23.38809,-85.2789c8.02477,-29.32474 16.06527,-58.64512 24.1199,-87.96167c0.80318,-2.92333 1.60629,-5.84667 2.4094,-8.77002c0.51627,-1.87915 1.03254,-3.7583 1.54882,-5.63745c0.25091,-0.91327 0.50182,-1.82655 0.76034,-2.7675c1.21519,-4.42265 2.43098,-8.84513 3.64808,-13.26726c0.46137,-1.6764 0.92272,-3.3528 1.38407,-5.02921c0.22242,-0.80819 0.44484,-1.61638 0.674,-2.44907c1.27968,-4.65252 2.55393,-9.30648 3.82261,-13.96201c0.75481,-2.76887 1.51196,-5.53709 2.26945,-8.30523c0.50911,-1.86433 1.01469,-3.72963 1.52017,-5.59495c0.29766,-1.08668 0.59532,-2.17337 0.902,-3.29298c0.25632,-0.94199 0.51265,-1.88398 0.77675,-2.85451c1.31604,-4.17573 3.61169,-3.22544 7.62727,-3.23256z"/>
  <path id="svg_3" fill="#ffffff" d="m85,1c10.62442,38.17617 21.2167,76.36108 31.75,114.5625c0.37398,1.35633 0.37398,1.35633 0.75552,2.74007c2.29778,8.33365 4.59518,16.66741 6.89219,25.00128c3.53773,12.83535 7.07712,25.67024 10.61792,38.50474c0.37055,1.34317 0.37055,1.34317 0.74858,2.71346c1.24658,4.51853 2.49319,9.03704 3.73982,13.55556c2.24874,8.15085 4.49722,16.30178 6.74572,24.4527c1.25007,4.53156 2.50016,9.06313 3.75025,13.59469c0.5,1.8125 1,3.625 1.5,5.4375c0.2475,0.89719 0.495,1.79438 0.75,2.71875c25.125,91.07813 25.125,91.07813 50.25,182.15625c0.2475,0.8972 0.49501,1.7944 0.75001,2.71879c0.49996,1.81236 0.99992,3.62471 1.49988,5.43706c1.25063,4.53353 2.50126,9.06707 3.7519,13.6006c2.24247,8.12895 4.48493,16.2579 6.72734,24.38686c1.24003,4.4952 2.48005,8.9904 3.72009,13.4856c0.36888,1.33721 0.36888,1.33721 0.74521,2.70144c3.37894,12.24878 6.75826,24.49745 10.13788,36.74604c1.88196,6.82071 3.76381,13.64146 5.64564,20.46221c1.26971,4.60207 2.53948,9.20412 3.8094,13.80613c0.3567,1.29269 0.3567,1.29269 0.7206,2.61149c0.47382,1.717 0.94772,3.43398 1.42171,5.15093c1.15052,4.16835 2.2993,8.33716 3.44415,12.50708c2.13841,7.78302 4.29323,15.56047 6.49976,23.32451c1.05077,3.70178 2.09238,7.40612 3.13309,11.11075c0.49839,1.76447 1.0012,3.52771 1.5087,5.28959c0.70102,2.43482 1.38673,4.87348 2.06936,7.31351c0.21021,0.71507 0.42043,1.43014 0.63702,2.16688c1.95681,7.11198 0.66891,11.57496 -2.86236,17.86412c-0.31823,0.5724 -0.63645,1.1448 -0.96431,1.73455c-1.03991,1.86549 -2.0923,3.7236 -3.14507,5.58186c-0.73244,1.30801 -1.46412,2.61645 -2.19507,3.92529c-1.83488,3.28015 -3.6802,6.55425 -5.53045,9.82575c-1.48582,2.6272 -2.96761,5.25668 -4.45026,7.88568c-1.56518,2.77197 -3.13221,5.54283 -4.70361,8.31128c-4.21458,7.42774 -8.35934,14.89293 -12.49561,22.3645c-4.52031,8.1491 -9.05476,16.28917 -13.6875,24.375c-0.45004,0.79374 -0.90009,1.58748 -1.36377,2.40527c-3.08902,5.35238 -3.08902,5.35238 -5.32373,6.46973c-0.26213,-0.95574 -0.52426,-1.91149 -0.79433,-2.89619c-11.87574,-43.29762 -23.76546,-86.59119 -35.76817,-129.85381c-0.47286,-1.70443 -0.94572,-3.40885 -1.41858,-5.11328c-0.35267,-1.27119 -0.35267,-1.27119 -0.71246,-2.56807c-1.19081,-4.29238 -2.3815,-8.5848 -3.57208,-12.87724c-0.23555,-0.84921 -0.4711,-1.69842 -0.71379,-2.57336c-5.38054,-19.40024 -10.73421,-38.80787 -16.08483,-58.21638c-8.58995,-31.1585 -17.19265,-62.31344 -25.81076,-93.46417c-0.26964,-0.97463 -0.53927,-1.94927 -0.81708,-2.95343c-2.46038,-8.89324 -4.92091,-17.78644 -7.38164,-26.67958c-3.8121,-13.77707 -7.62341,-27.55437 -11.43409,-41.33183c-0.4019,-1.45306 -0.4019,-1.45306 -0.81192,-2.93547c-2.16386,-7.82338 -4.32767,-15.64676 -6.49147,-23.47015c-1.89364,-6.84657 -3.7873,-13.69314 -5.68099,-20.5397c-0.26789,-0.96856 -0.53578,-1.93712 -0.8118,-2.93504c-3.81405,-13.78956 -7.62898,-27.57888 -11.44444,-41.36805c-2.45905,-8.88719 -4.91786,-17.77446 -7.37657,-26.66175c-0.2694,-0.97375 -0.53879,-1.94749 -0.81635,-2.95075c-7.84675,-28.36312 -15.67985,-56.72997 -23.50189,-85.09992c-8.16528,-29.61458 -16.34474,-59.22519 -24.54645,-88.8297c-0.75142,-2.71256 -1.50264,-5.42516 -2.25381,-8.13779c-1.17395,-4.23919 -2.34853,-8.47822 -3.5236,-12.7171c-0.42708,-1.54089 -0.85399,-3.08181 -1.28069,-4.6228c-0.3979,-1.43679 -0.79614,-2.87347 -1.19477,-4.31006c-0.37629,-1.35738 -0.75133,-2.71511 -1.12499,-4.07322c-0.90448,-3.27286 -1.84084,-6.53068 -2.84009,-9.77596c-0.37653,-1.24138 -0.75306,-2.48276 -1.14099,-3.76175c-0.51231,-1.6392 -0.51231,-1.6392 -1.03498,-3.31151c-0.63806,-3.0764 -0.47321,-4.97868 0.38361,-7.97194c9.34476,-0.91837 18.69002,-1.83149 28.03593,-2.73806c4.34049,-0.4212 8.68079,-0.84415 13.02071,-1.27122c4.1947,-0.41271 8.38983,-0.82067 12.5853,-1.22545c1.59398,-0.1546 3.18781,-0.31087 4.78146,-0.4689c8.21182,-0.81319 16.31219,-1.49707 24.5766,-1.29637z"/>
  <path id="svg_4" fill="#FFFFFF" d="m964,740c2.88678,2.80927 4.95444,5.33363 6.89063,8.875c0.53608,0.97042 1.07217,1.94084 1.62451,2.94067c0.5725,1.05083 1.14501,2.10166 1.73486,3.18433c1.25664,2.27539 2.51449,4.55011 3.77344,6.82422c0.32513,0.58891 0.65027,1.17783 0.98526,1.78459c3.55806,6.43774 7.20835,12.82231 10.8663,19.20369c0.67357,1.1764 1.34707,2.35283 2.02051,3.5293c1.35697,2.37021 2.71446,4.74013 4.07226,7.10986c3.01591,5.26455 6.02483,10.53309 9.03424,15.80136c1.66571,2.91583 3.33187,5.83139 4.99799,8.74698c0.66667,1.16667 1.33334,2.33333 2,3.5c0.495,0.86625 0.495,0.86625 1,1.75c3,5.25 3,5.25 3.99995,6.99992c0.66682,1.16693 1.33364,2.33385 2.00046,3.50077c1.66444,2.91271 3.3288,5.82547 4.993,8.73832c3.02655,5.29719 6.05369,10.59404 9.08359,15.88932c7.03,12.28629 14.04141,24.58242 20.99673,36.91122c6.24896,11.06822 12.56551,22.0978 18.87793,33.12988c3.01935,5.27727 6.03524,10.5565 9.05136,15.83561c1.66552,2.91507 3.33126,5.83001 4.99698,8.74496c0.66667,1.16667 1.33333,2.33333 2,3.5c0.33,0.5775 0.66,1.155 1,1.75c19,33.25 19,33.25 19.99997,34.99995c0.66676,1.16683 1.33353,2.33365 2.0003,3.50046c1.66532,2.91422 3.33049,5.82852 4.99534,8.743c3.01594,5.27935 6.03301,10.55803 9.05569,15.83352c1.69198,2.9531 3.38307,5.9067 5.0737,8.86057c0.33256,0.581 0.66512,1.16201 1.00775,1.76062c4.71395,8.23973 9.37093,16.50985 13.99225,24.80188c5.09715,9.14446 10.32499,18.20359 15.62549,27.23145c4.77194,8.14813 9.38847,16.37699 13.97973,24.62793c4.74732,8.50976 9.62685,16.93742 14.5647,25.33789c1.57473,2.68059 3.14201,5.36533 4.70508,8.05273c0.74806,1.27617 0.74806,1.27617 1.51123,2.57813c0.45907,0.79921 0.91814,1.59843 1.39111,2.42187c0.40598,0.70125 0.81195,1.4025 1.23023,2.125c0.86743,1.875 0.86743,1.875 0.86743,4.875c-12.044,3.41533 -24.09256,6.81431 -36.14539,10.19836c-1.90187,0.53409 -3.80364,1.06851 -5.70532,1.60328c-5.54201,1.55816 -11.0859,3.10928 -16.63269,4.65036c-1.75616,0.48897 -3.5117,0.98019 -5.2666,1.47369c-2.45928,0.69106 -4.9207,1.37391 -7.38281,2.05478c-0.72543,0.20572 -1.45086,0.41143 -2.19828,0.62338c-3.64084,0.99707 -6.88909,1.63371 -10.66891,1.39615c-0.40614,-0.71205 -0.81227,-1.42409 -1.23071,-2.15771c-7.39586,-12.96323 -14.80199,-25.92003 -22.26929,-38.84229c-7.20225,-12.46595 -14.3483,-24.96361 -21.48389,-37.46777c-3.00344,-5.26271 -6.01041,-10.5234 -9.01712,-15.78424c-1.66647,-2.91592 -3.33272,-5.83196 -4.99899,-8.74799c-0.66667,-1.16667 -1.33333,-2.33333 -2,-3.5c-1.33333,-2.33333 -2.66667,-4.66667 -4,-7c-0.32999,-0.57748 -0.65998,-1.15496 -0.99997,-1.74994c-0.66678,-1.16686 -1.33355,-2.33373 -2.0003,-3.50061c-1.66491,-2.91367 -3.32996,-5.82726 -4.99534,-8.74066c-3.02119,-5.28564 -6.04122,-10.57193 -9.05569,-15.86141c-1.69049,-2.96621 -3.38186,-5.93193 -5.0737,-8.89738c-0.33256,-0.58295 -0.66512,-1.1659 -1.00775,-1.76651c-4.61513,-8.08595 -9.28347,-16.13922 -13.99225,-24.17099c-5.32729,-9.08817 -10.50264,-18.25306 -15.62549,-27.45776c-3.99936,-7.16883 -8.09314,-14.27592 -12.24951,-21.35474c-4.7643,-8.11419 -9.42412,-16.27809 -14,-24.5c-5.0892,-9.14087 -10.2945,-18.20444 -15.58521,-27.22998c-4.38386,-7.48512 -8.72333,-14.99455 -13.03131,-22.52353c-0.70622,-1.23409 -1.41303,-2.46784 -2.12048,-3.70123c-0.98915,-1.72503 -1.97573,-3.45153 -2.96222,-5.17807c-0.56549,-0.98887 -1.13099,-1.97775 -1.71362,-2.99658c-0.78565,-1.42095 -0.78565,-1.42095 -1.58716,-2.87061c-0.56353,-0.8815 -1.12706,-1.76299 -1.70767,-2.6712c-1.67628,-4.31778 -0.841,-7.19952 0.44327,-11.46015c0.33119,-1.19206 0.33119,-1.19206 0.66908,-2.4082c0.73657,-2.63111 1.50361,-5.25228 2.2711,-7.87451c0.52509,-1.85196 1.04827,-3.70446 1.56963,-5.55747c1.38346,-4.89718 2.79286,-9.78653 4.20778,-14.67471c1.40415,-4.86742 2.78411,-9.74168 4.16595,-14.61548c2.37937,-8.37917 4.77794,-16.75267 7.18878,-25.12284c2.34051,-8.12617 4.66458,-16.25697 6.98505,-24.38888c0.63429,-2.22056 1.26864,-4.4411 1.90307,-6.66162c0.43466,-1.52164 0.86932,-3.04329 1.30396,-4.56494z"/>
 </g>
</svg>